<svg id="Layer_1" data-name="Layer 1" xmlns="http://www.w3.org/2000/svg" viewBox="0 0 7910.17 7704.25"><defs><style>.cls-1{fill:#91ffff;}.cls-2{fill:#fff;}.cls-3{fill:#045254;}</style></defs><circle class="cls-1" cx="4421.13" cy="3489.03" r="3489.03"/><path class="cls-2" d="M-1599.38,4087.66a3334.84,3334.84,0,0,1,126.34-908c44.57-157.53,86.08-367,95.7-619.13,0,0,18.13-761.29,358-951.61,0,0,249.23-154.07,883.64-281,0,0,865.13-244.7,1247.51-407.83,0,0,227-339.86,602.25-512.06l-20.92-287.32S1142.17,44,1223.73-1224c0,0,27-831.74,444-1185.81,0,0,90.42-422,523.33-453.76,0,0,224.45-439.56,1293.88-167.67,0,0,578.56,213,1016.58,598.16,0,0,392.71,211.76,252.23,1086.94,0,0-97.09,1102.22-528.88,1165.43,0,0-10.36,620.58-259.59,597.93,0,0-63.44,301.9-353.46,656.21l17.57,100.54s160.8,100,300.45,269.77c0,0,842,369.17,1612.39,822.32,0,0,489.4,870,516.59,1821.65Z" transform="translate(1599.38 3616.59)"/><path class="cls-1" d="M2127.91-1161.82s-219.27,204.15-237,560.36l-49.42,255.67-27.77,64.29s-134.26-381.15-209.58-276.42c0,0-61.52,287,76.59,500l79.69,71.22S1623,31.87,1523.89-211.26l-60.57-160-41.69-95.13L1387-625.4l-57.91-415.12,26.8-248.08,26.52-157.06,38-50.89,9.57-126.26,63.68-148.46,57.76-183.48,41.88-146,105.14-128.43L1813-2311.6l37.65-119.79,75.62-78.08,67.86-48s29.51-151.43,215.24-162.95l52.88-11.3s164.57-255.85,540.68-197.14l156.34-10.66,151.6,10.66,117.92,2.2s175.12-41.08,464.85,131.76c0,0,171.92,22.69,267.09,186.69,0,0,154.93-11,296.67,189.22l81.7,53.53,67.28,75.75s165.42,30.19,187.85,223.9l-2,77.33s60.51,109.71,39.07,253.52l7.7,57.81-14.15,68,18.31,65.65-7.8,181.59L4594.42-1113l-37.05,201.65-85.27,245.6L4349.34-454.41s-150.6,296.89-275.83,79.13l-45.08-167.91-43-49.73-55.55-20.77S3995-693.86,3996-963.49c0,0,32.33-302.85-266.55-418.78,0,0-167.69-62.33-254.43-267.75l-101.13-49.56s-21.22,153.86-187.7,156.09c0,0,93.14-5.86,113-106.53,0,0-191.23,205.86-405.26-45.85l-2.84,39.78S2650-1573,2566.56-1837.5c0,0-265.85-43.61-385.18,231.3,0,0-105.49,158.26-39.15,431.83Z" transform="translate(1599.38 3616.59)"/><path class="cls-3" d="M3678.27-448.73a17,17,0,0,1-8-2c-38.81-20.8-96.8-61.21-108-69.1-1.36-.94-2.49-1.7-3.54-2.34s-1.82-1.12-2.55-1.55l-.41-.24c-36.74-21.77-80.78-31.13-130.88-27.83-68.52,4.52-124.39,31.57-125,31.84a17,17,0,0,1-22.81-7.78,17,17,0,0,1,7.76-22.8c2.5-1.24,62.22-30.3,137.76-35.28,57.27-3.77,108,7.24,150.88,32.74l.27.17c.85.5,1.77,1.06,2.85,1.73,1.62,1,3.26,2.08,5.18,3.43,11,7.71,67.48,47.08,104.57,67a17,17,0,0,1,7,23.07A17,17,0,0,1,3678.27-448.73Z" transform="translate(1599.38 3616.59)"/><path class="cls-3" d="M2803.7-596.76a17,17,0,0,1-10.81-3.88l-20.33-16.69a378.69,378.69,0,0,0-125.23-68.29l-.38-.13a376.82,376.82,0,0,0-127.67-17.74,374.55,374.55,0,0,0-96.78,16.14c-2.39.73-4.58,1.42-6.72,2.11-18.64,6-35.12,11-50.41,15.4L2331-660.08A17,17,0,0,1,2310-671.81a17,17,0,0,1,11.73-21.06l34.34-9.76c14.9-4.24,31-9.16,49.25-15,2.3-.74,4.67-1.49,7.23-2.27a408.4,408.4,0,0,1,105.6-17.61,410.64,410.64,0,0,1,139.61,19.47l.4.13a412.61,412.61,0,0,1,136.06,74.29L2814.53-627a17.05,17.05,0,0,1,2.35,24A17,17,0,0,1,2803.7-596.76Z" transform="translate(1599.38 3616.59)"/><path class="cls-3" d="M3565.22-529.82a75.82,75.82,0,0,1-15.4,45.91c-76.74-.17-135.75-33.21-135.75-33.21l0,0a76.5,76.5,0,0,1-1.06-12.74,75.74,75.74,0,0,1,10.73-39c44.84-3,95.22,3.11,141,30.38h0A76.62,76.62,0,0,1,3565.22-529.82Z" transform="translate(1599.38 3616.59)"/><path class="cls-3" d="M2656.89-676.42a75.82,75.82,0,0,1-8,33.92c-81.47,3-142.27-16.62-142.27-16.62l0,0a76.73,76.73,0,0,1-2-17.33,75.75,75.75,0,0,1,14.07-44.1,394.73,394.73,0,0,1,133.83,18.66h0A75.93,75.93,0,0,1,2656.89-676.42Z" transform="translate(1599.38 3616.59)"/><path class="cls-3" d="M3711.73-241.33A1043.94,1043.94,0,0,1,3602.35-247c-119.1-12.59-226.46-45.68-319.13-98.35a138.75,138.75,0,0,1-69.63-108.42c-3.14-35.58-4.34-90.28,7.72-148.84a87.72,87.72,0,0,1,23-43.45A88.3,88.3,0,0,1,3287-670.4l4,16.57-4-16.57c105-25.33,384.85-69.66,714.21,65.51a74.33,74.33,0,0,1,38.32,35.66,74.59,74.59,0,0,1,5.38,52.05c-11.84,45.33-31.14,110.72-55.91,164.87a178.09,178.09,0,0,1-56.18,69.14,177.71,177.71,0,0,1-82.7,33.13A1103.75,1103.75,0,0,1,3711.73-241.33ZM3534.74-664c-108.46,0-192.41,15.38-239.73,26.79a54.23,54.23,0,0,0-40.31,41.54c-11.23,54.52-10.09,105.66-7.15,139A104.65,104.65,0,0,0,3300.07-375c139.53,79.31,291.72,99.65,411.07,99.65a1070.17,1070.17,0,0,0,134.67-8.53A142.48,142.48,0,0,0,3958-366.49c23.76-51.92,42.44-115.29,53.93-159.3a40.49,40.49,0,0,0-23.65-47.56C3817-643.66,3659.6-664,3534.74-664Z" transform="translate(1599.38 3616.59)"/><path class="cls-3" d="M2693.56-425.27c-57.29,0-116.34-6.11-176.72-18.32-99.77-20.18-183.1-53.17-235.44-77.29a177.62,177.62,0,0,1-68.94-56.43,178.08,178.08,0,0,1-32.83-82.81c-7.37-59.1-6.16-127.27-3.84-174a74.55,74.55,0,0,1,20.76-48,74.28,74.28,0,0,1,47.25-22.51c36.88-3.12,72.69-4.56,107.31-4.56,298.45,0,510.67,106.58,593.62,156.48a88.25,88.25,0,0,1,33.41,36,87.69,87.69,0,0,1,8.91,48.36c-6.07,59.48-23.64,111.29-37.31,144.29a138.74,138.74,0,0,1-99,82.51A746,746,0,0,1,2693.56-425.27ZM2351.22-875.19c-33.73,0-68.59,1.39-104.54,4.44a40.48,40.48,0,0,0-36.84,38.26c-2.25,45.44-3.45,111.49,3.62,168.15a142.51,142.51,0,0,0,82.21,112.5c107.63,49.6,321.93,125.55,547.92,76.91a104.63,104.63,0,0,0,74.65-62.24c12.8-30.88,29.24-79.32,34.9-134.69a54.24,54.24,0,0,0-26-51.72C2846.78-771.94,2641.07-875.19,2351.22-875.19Z" transform="translate(1599.38 3616.59)"/><path class="cls-3" d="M3251.41-611.22a16.92,16.92,0,0,1-9-2.61c-56.46-35.41-126.49-47.24-175.3-50.92-53.71-4-94.31.59-94.72.64A17.06,17.06,0,0,1,2953.43-679,17.05,17.05,0,0,1,2968.35-698c1.76-.2,43.7-5,100.52-.83a525.8,525.8,0,0,1,94.28,15.26c36.8,9.66,69.55,23.4,97.33,40.83a17.05,17.05,0,0,1,5.39,23.5A17,17,0,0,1,3251.41-611.22Z" transform="translate(1599.38 3616.59)"/><path class="cls-3" d="M3251.43-636.47s3.91-49.84,112.67-69.48c0,0-27.19,10.88-49.85,38.67-20.19,24.77,45.32-112.68,423.28,1.29,68.83,20.75,122.14,75.74,155.22,139.56l4.55,8.79-33.23-22.15L3882.2-499S3712.57-666.68,3413-613.81C3413-613.81,3224.85-570,3251.43-636.47Z" transform="translate(1599.38 3616.59)"/><path class="cls-3" d="M2938.19-717.75s14-48-80.79-104.86c0,0,21.58,19.8,32.93,53.81,10.13,30.31-2.5-121.43-396.34-148.59-71.71-5-141,27.62-194.56,75.6l-7.37,6.61,38.92-9-31.39,31.73s218-96.79,479.5,58.69C2779.09-753.72,2939.53-646.18,2938.19-717.75Z" transform="translate(1599.38 3616.59)"/><path class="cls-3" d="M2775.76-659.67a7.57,7.57,0,0,1-4.57-1.53h0c-.37-.28-37.49-27.75-110.3-46.7-67.26-17.5-179.61-31.12-332.85,3.47a7.61,7.61,0,0,1-9.09-5.75,7.61,7.61,0,0,1,5.75-9.09c69.15-15.61,136-23,198.83-21.84,50.34.9,98.18,7.21,142.18,18.75,75.36,19.78,113.07,47.83,114.64,49a7.62,7.62,0,0,1,1.48,10.66A7.61,7.61,0,0,1,2775.76-659.67Z" transform="translate(1599.38 3616.59)"/><path class="cls-3" d="M3657.13-510a7.52,7.52,0,0,1-4-1.15c-93-57.65-182.87-68.51-241.9-67.47-64.15,1.13-106.82,16.16-107.25,16.31a7.61,7.61,0,0,1-9.72-4.59,7.61,7.61,0,0,1,4.58-9.73c1.81-.65,45-15.92,111.47-17.18a453.12,453.12,0,0,1,115.62,12.7,464.9,464.9,0,0,1,135.21,57,7.61,7.61,0,0,1,2.46,10.47A7.61,7.61,0,0,1,3657.13-510Z" transform="translate(1599.38 3616.59)"/><path class="cls-3" d="M3228.49-22.21a12.33,12.33,0,0,1-11.38-7.57,12.34,12.34,0,0,1,6.63-16.13c40.73-17,64.22-40,69.84-68.22,11.29-56.87-50.27-119.53-50.89-120.16a12.33,12.33,0,0,1,0-17.43,12.33,12.33,0,0,1,17.43,0c2.93,2.94,71.42,72.74,57.59,142.35-7.31,36.8-35.74,65.79-84.51,86.17A12.24,12.24,0,0,1,3228.49-22.21Z" transform="translate(1599.38 3616.59)"/><path class="cls-3" d="M2803.71-74.32a12.29,12.29,0,0,1-8.74-3.63c-51.37-51.61-71.49-99.32-59.79-141.8,19.54-71,120.71-97.66,125-98.76a12.33,12.33,0,0,1,15,8.88,12.33,12.33,0,0,1-8.89,15c-1.32.35-91.71,24.38-107.37,81.47-9.14,33.32,8.86,73,53.51,117.82a12.32,12.32,0,0,1,0,17.43A12.29,12.29,0,0,1,2803.71-74.32Z" transform="translate(1599.38 3616.59)"/><path class="cls-3" d="M3050-5.42q-3.9,0-7.83-.36c-48-4.49-80.51-49.14-81.87-51a12.67,12.67,0,0,1-.82-1.32c-18.58-34.44-42.42-57.21-68.94-65.84-19.78-6.45-34.53-2.89-34.67-2.85l.1,0-6.4-23.8c2.08-.56,21-5.22,46.8,2.67a119.53,119.53,0,0,1,42.43,23.74c15.77,13.4,29.88,31.44,41.94,53.61,3.47,4.55,29.47,37.19,63.85,40.32,19.52,1.78,39-6.44,57.75-24.44,2.53-2.43,62.53-59,118.46-43.78a12.33,12.33,0,0,1,8.64,15.14,12.32,12.32,0,0,1-15.13,8.64c-42.46-11.58-94.42,37.32-94.94,37.81C3097.54-16,3074.23-5.42,3050-5.42Z" transform="translate(1599.38 3616.59)"/><path class="cls-3" d="M3401.12,301.79l-.78,0c-30-1.88-64.42-8.71-102.36-20.3a480.59,480.59,0,0,1-72.35-29c-79.66-39.44-168.37-39-214.17-35.22a206.78,206.78,0,0,1-81.38-9.68c-45.59-14.84-109.66-25.95-185.3-32.13a908,908,0,0,0-158.44.9c-29.22,2.75-72.49,5.51-112.67,3.08a12.33,12.33,0,0,1,1.5-24.61c38.6,2.34,80.51-.34,108.87-3a932.85,932.85,0,0,1,162.75-.93c78.63,6.43,142.86,17.62,190.92,33.26a182.29,182.29,0,0,0,71.73,8.55,515.47,515.47,0,0,1,101.17,1.65c46.41,5.52,88.79,17.65,126,36a455.48,455.48,0,0,0,68.61,27.51c35.59,10.88,69,17.55,96.7,19.28a12.32,12.32,0,0,1-.76,24.62Z" transform="translate(1599.38 3616.59)"/><path class="cls-3" d="M3026.74,381.32q-13.92,0-27.8-.66c-143.19-6.8-256-46.41-325.32-78.45-38.35-17.7-73.07-42.82-103.19-74.66-36.58-38.66-86.06-47.64-86.55-47.73a12.33,12.33,0,0,1,4.15-24.3c2.34.4,57.89,10.26,100.31,55.09A310.78,310.78,0,0,0,2684,279.84c67.39,31.11,176.94,69.59,316.16,76.2,92.43,4.39,186.57-14.43,272.24-54.43,44.8-20.92,79.79-29.07,104-24.23a12.32,12.32,0,0,1-4.84,24.17c-13-2.6-39-.83-88.73,22.4a613.15,613.15,0,0,1-138.46,45.62A596.1,596.1,0,0,1,3026.74,381.32Z" transform="translate(1599.38 3616.59)"/><path class="cls-3" d="M2975.42,527.76c-58.75,0-118.52-13.12-177.92-39.08-57.89-25.3-104.72-58.38-133.82-81.68-31.6-25.3-49.34-44.45-50.08-45.25a9.7,9.7,0,1,1,14.27-13.15c.31.33,17.9,19.25,48.45,43.66,28.21,22.54,73.59,54.53,129.54,78.9,142.66,62.13,280.17,47.13,408.71-44.58a9.7,9.7,0,1,1,11.27,15.79c-74,52.79-152.32,81.38-232.84,85Q2984.23,527.75,2975.42,527.76Z" transform="translate(1599.38 3616.59)"/><path class="cls-3" d="M3027.84,130.47a160,160,0,0,1-60.47-11.88l-47.95-19.68a9.7,9.7,0,1,1,7.36-18l48,19.67a140.05,140.05,0,0,0,65.26,9.9l58.76-5.19a9.7,9.7,0,1,1,1.71,19.33l-58.76,5.19C3037.1,130.27,3032.46,130.47,3027.84,130.47Z" transform="translate(1599.38 3616.59)"/><path class="cls-3" d="M3464.55,128.38a7.59,7.59,0,0,1-6.77-4.13c-22.21-43.21-109.73-176.68-110.61-178a7.6,7.6,0,0,1,2.18-10.53,7.61,7.61,0,0,1,10.54,2.18c3.61,5.51,88.84,135.49,111.42,179.42a7.6,7.6,0,0,1-6.76,11.08Z" transform="translate(1599.38 3616.59)"/><path class="cls-3" d="M3485.32,346.92a7.85,7.85,0,0,1-1.9-.24,7.62,7.62,0,0,1-5.47-9.26L3492.22,282a156.76,156.76,0,0,0-4.1-91.8L3480,167.39a7.6,7.6,0,1,1,14.33-5.08l8.08,22.77a172,172,0,0,1,4.5,100.68l-14.27,55.45A7.6,7.6,0,0,1,3485.32,346.92Z" transform="translate(1599.38 3616.59)"/><path class="cls-3" d="M2456.29,9.32a7.57,7.57,0,0,1-4.91-1.8,7.6,7.6,0,0,1-.89-10.71c74.35-87.88,226-212.7,227.55-213.95a7.61,7.61,0,0,1,10.71,1,7.62,7.62,0,0,1-1.06,10.71c-1.51,1.24-152.13,125.19-225.59,212A7.57,7.57,0,0,1,2456.29,9.32Z" transform="translate(1599.38 3616.59)"/><path class="cls-3" d="M2379.26,167.68a7.61,7.61,0,0,1-7.61-7.6V139a165.13,165.13,0,0,1,29.09-93.81l12.4-18.07a7.61,7.61,0,1,1,12.54,8.61l-12.4,18.07a150,150,0,0,0-26.42,85.2v21.09A7.6,7.6,0,0,1,2379.26,167.68Z" transform="translate(1599.38 3616.59)"/><path class="cls-3" d="M2855,1119.84a621.65,621.65,0,0,1-75.58-4.57,632.59,632.59,0,0,1-130.15-30.37c-46-16-91.93-37.7-136.57-64.61-47.65-28.73-95.16-64.19-141.21-105.37a17.05,17.05,0,0,1,22.73-25.42c165.66,148.16,323.5,195.83,461.63,195.83,171.2,0,312.12-73.19,400.32-119,70-36.36,139.39-70.08,206.21-100.23,199.25-89.89,311-287.46,369.68-437.38,33.5-85.6,53.69-165.23,64.72-217,12-56.17,16.07-92.5,16.11-92.86a17,17,0,0,1,33.89,3.73c-.17,1.52-4.24,37.89-16.48,95.43-11.27,52.95-31.9,134.51-66.18,222.29-38.67,99-86.48,185.59-142.1,257.41-70,90.38-152.65,157.47-245.62,199.42-66.25,29.89-135.06,63.33-204.52,99.41-79.25,41.15-211.88,110-370.66,121.56Q2878.1,1119.84,2855,1119.84Z" transform="translate(1599.38 3616.59)"/><path class="cls-3" d="M2084.7,714.35a17,17,0,0,1-9.79-3.1c-76.88-54-140.07-128.43-187.83-221.12-37.93-73.64-66.25-158.92-84.15-253.48C1787.06,152.81,1782.46,77,1781.4,28.11c-1.15-53.11,1.44-86,1.55-87.42a17,17,0,0,1,18.36-15.63,17,17,0,0,1,15.62,18.36h0c0,.32-2.58,33.1-1.43,84.78,1.07,47.6,5.59,121.44,21.08,203,27.13,142.66,93.89,336.92,257.93,452.2a17,17,0,0,1-9.81,31Z" transform="translate(1599.38 3616.59)"/><path class="cls-3" d="M2836.3,1673.79a17,17,0,0,1-7.87-32.17c204.9-106.53,363.12-254.27,459.78-359.45,99.65-108.43,155.78-194.68,161.44-203.5,83.43-171.1,213.24-362.32,214.54-364.24a17,17,0,0,1,28.18,19.19c-1.29,1.9-130.19,191.78-212.5,360.85a18.43,18.43,0,0,1-.9,1.62c-2.35,3.74-58.89,93-165.66,209.15a1896.43,1896.43,0,0,1-199,187.77c-86.81,70.6-177.72,130.78-270.19,178.86A16.91,16.91,0,0,1,2836.3,1673.79Z" transform="translate(1599.38 3616.59)"/><path class="cls-3" d="M1813.77,718.52c-.54,0-1.08,0-1.62-.08a17,17,0,0,1-15.37-18.56c14.85-157.87,13-428.7,13-431.42a17,17,0,0,1,16.92-17.17h.12a17.05,17.05,0,0,1,17.05,16.92c0,2.74,1.83,275.27-13.18,434.86A17,17,0,0,1,1813.77,718.52Z" transform="translate(1599.38 3616.59)"/><path class="cls-3" d="M1942.73,2451.41a17,17,0,0,1-16.58-13.09l-144.26-604.39c-19.05-79.81-42.25-159.47-69-236.77-63.61-184.07-111.47-346.11-142.27-481.62a565.4,565.4,0,0,1,54.64-395.62C1669.87,638,1719,570.64,1752.39,528.58c36.27-45.7,61.74-71.73,62.81-72.82a17,17,0,0,1,24.32,23.88h0c-.25.26-25.54,26.15-60.78,70.58-32.44,40.92-80.2,106.4-123.49,186A531.26,531.26,0,0,0,1603.91,1108c30.52,134.31,78,295.14,141.24,478.05,27.07,78.35,50.59,159.09,69.9,240l135.87,569.25c47.42-62.54,165.6-217.23,289.29-370.37,93.73-116.05,172.28-208.58,233.47-275,105.63-114.65,139.4-130.11,158.5-130.11a17,17,0,1,1,0,34.09c-.4,0-11.13.85-45.83,31.29-23.43,20.54-53.45,50.7-89.25,89.63-60.73,66-138.66,157.93-231.63,273.08C2107,2244.2,1957.85,2442.62,1956.36,2444.6A17.05,17.05,0,0,1,1942.73,2451.41Z" transform="translate(1599.38 3616.59)"/><path class="cls-3" d="M2682.87,1850a17,17,0,0,1-17-17v-93.23c-.77-32.63-41.76-123-306.55-362.44-153-138.31-307.7-259.86-309.24-261.07l-.15-.11c-71.63-57.42-129.18-118-171.05-180.2-33.82-50.2-57.58-101.54-70.61-152.59-22.55-88.35-5.2-145.38-4.45-147.77l32.52,10.22,0-.07c0,.13-3.92,13.06-5.15,35.67-1.14,20.84-.2,54.43,10.75,96.08,19.49,74.12,75.07,188.4,229.23,312,4.19,3.29,158.34,124.55,310.86,262.43,90.61,81.9,163,153.63,215.18,213.21,31.33,35.77,55.75,67.64,72.56,94.72,19.87,32,29.74,58,30.17,79.38V1833A17,17,0,0,1,2682.87,1850Z" transform="translate(1599.38 3616.59)"/><path class="cls-3" d="M3338.42,2536a17.07,17.07,0,0,1-15.1-9.13L2990,1890.74c-15.35-29.3-28.87-56.67-41.32-83.65-38.27-83-84-129.76-136-139.07-28.21-5.06-58,.91-88.55,17.74a192.56,192.56,0,0,0-39,28.21A17,17,0,1,1,2661,1689.9c.72-.73,18.06-18,45.67-33.42a197.33,197.33,0,0,1,49.59-19.77,151.36,151.36,0,0,1,62.19-2.3c63.68,11.28,117.91,64.57,161.2,158.39,12.2,26.47,25.47,53.33,40.56,82.12l313.26,597.8c149-548.86,175.57-895.42,171.18-1090.88-2.55-113.43-15.56-189.07-26-232.54-11.34-47.06-22.2-67.59-22.31-67.79l0,.07,29.88-16.41c1.9,3.47,46.64,87.39,52.37,310.26,3.32,129.44-7.19,279.92-31.25,447.25-30,208.69-81.31,444.49-152.47,700.83a17,17,0,0,1-14.63,12.39A15.51,15.51,0,0,1,3338.42,2536Z" transform="translate(1599.38 3616.59)"/><path class="cls-3" d="M2807.36,1856.47c-50.64,0-106.89-3.71-167.28-11-105.45-12.78-188.45-32.5-189.28-32.7a17,17,0,1,1,7.94-33.15c.9.21,82.29,19.52,185.83,32.05,135.93,16.45,248.19,13.84,324.65-7.53a17,17,0,0,1,9.18,32.83c-45.36,12.68-101.48,19.25-166.8,19.52Z" transform="translate(1599.38 3616.59)"/><path class="cls-3" d="M2489.53,2451.41a17,17,0,0,1-11.68-4.63c-2.49-2.34-61.54-58.16-120.18-137.64-34.63-46.95-61.82-92.36-80.81-135-24.23-54.38-35.19-104.59-32.58-149.23a17,17,0,1,1,34,2c-4.14,71,32.67,161.41,106.47,261.55a1136.78,1136.78,0,0,0,106.65,123.92,312.15,312.15,0,0,1,108.91-44.84c34.81-7.12,71.59-8.63,109.31-4.49a400.39,400.39,0,0,1,93.1,21.67c12.32-31.49,31.72-68,57.82-108.75,24.48-38.24,55-80.47,90.61-125.51,60.52-76.49,115.9-135.62,116.46-136.21a17,17,0,1,1,24.85,23.34c-.54.58-55.09,58.83-114.75,134.24-78.19,98.84-129.64,182.05-148.77,240.64a17,17,0,0,1-23.5,10.11c-.39-.18-42-19.53-100.69-25.77-77.41-8.24-146.49,9.05-205.3,51.39A17,17,0,0,1,2489.53,2451.41Z" transform="translate(1599.38 3616.59)"/><path class="cls-3" d="M2293.16,3687a17,17,0,0,1-17-17.05c0-26.38.58-54,1.72-82a17,17,0,0,1,34.07,1.4c-1.13,27.57-1.7,54.69-1.7,80.61A17.06,17.06,0,0,1,2293.16,3687Z" transform="translate(1599.38 3616.59)"/><path class="cls-3" d="M2298.6,3539.3c-.4,0-.8,0-1.21,0a17,17,0,0,1-15.82-18.19c12.09-173,42.23-340.41,65.39-450.39a2148.07,2148.07,0,0,1,62.17-229.84c40.55-122.89,55.62-226.81,61.12-292.35,5.92-70.55,2.33-112.19,2.3-112.6a17,17,0,1,1,33.95-3c.16,1.8,3.89,45-2.28,118.49a1228.89,1228.89,0,0,1-18.6,132.11,1387.68,1387.68,0,0,1-44.12,168.07,2117,2117,0,0,0-61.19,226.18c-22.93,108.94-52.77,274.7-64.73,445.75A17,17,0,0,1,2298.6,3539.3Z" transform="translate(1599.38 3616.59)"/><path class="cls-3" d="M3187.38,3711.16h-.13a17,17,0,0,1-16.92-17.16c.19-26.73-.65-54.8-2.5-83.45a17,17,0,0,1,34-2.19c1.9,29.45,2.76,58.35,2.57,85.88A17,17,0,0,1,3187.38,3711.16Z" transform="translate(1599.38 3616.59)"/><path class="cls-3" d="M3178.84,3559.31a17,17,0,0,1-16.91-15.14c-27.1-241-112.43-487.33-179.25-651.52a1683.93,1683.93,0,0,0-88.59-184,904.83,904.83,0,0,1-55.62-119,767.36,767.36,0,0,1-29.33-95c-12.61-53.41-13.38-85.74-13.41-87.09a17,17,0,0,1,16.7-17.38h.35a17,17,0,0,1,17,16.68h0c0,.31.84,31,12.81,81.24,11.05,46.37,34.11,119.4,81.24,204a1717,1717,0,0,1,90.39,187.78c39.92,98.07,74.65,196.5,103.23,292.54,39.4,132.36,65.75,256.18,78.32,368a17,17,0,0,1-15,18.85A18,18,0,0,1,3178.84,3559.31Z" transform="translate(1599.38 3616.59)"/><path class="cls-3" d="M1105.91,1987.69a17,17,0,0,1-12.05-5L885.41,1774.25a17,17,0,0,1-4.38-16.59l43.89-159A1673.8,1673.8,0,0,1,1531.5,706.23c106.34-80,170.89-108.84,173.58-110a17,17,0,1,1,13.76,31.19c-1.27.57-64.59,29.15-166.84,106.08-287.23,216.1-498.26,526.59-594.22,874.27l-41.24,149.42L1118,1958.59a17,17,0,0,1-12.06,29.1Z" transform="translate(1599.38 3616.59)"/><path class="cls-3" d="M1504.7,3664.34a17,17,0,0,1-13.93-7.2c-17.43-24.63-35.46-51.62-53.59-80.23a17,17,0,1,1,28.79-18.25c17.83,28.12,35.53,54.63,52.63,78.79a17,17,0,0,1-13.9,26.89Z" transform="translate(1599.38 3616.59)"/><path class="cls-3" d="M1416.78,3528.19a17,17,0,0,1-14.65-8.32c-71.24-119.39-147.73-268.47-227.34-443.08-63.61-139.52-129.37-295.6-195.45-463.91-112.48-286.5-187.93-512.25-188.68-514.49a17.07,17.07,0,0,1,11.16-21.69c120.68-37.13,235.29-86.49,310.19-121.37,81.29-37.85,134.66-67.28,135.19-67.57a17,17,0,1,1,16.5,29.83c-.53.3-54.71,30.18-137,68.51-72.48,33.76-181.69,80.92-298.13,118,19.35,56.91,87.76,255.06,182.57,496.54,103.42,263.4,260.27,633.66,420.26,901.8a17,17,0,0,1-14.62,25.79Z" transform="translate(1599.38 3616.59)"/><path class="cls-3" d="M-1327.95,3269.46a16.79,16.79,0,0,1-5-.76,17,17,0,0,1-11.29-21.3c6.72-21.87,13.76-46,20.92-71.69a2374.77,2374.77,0,0,0,84.67-529c15.09-334.09,93.29-578.36,156.23-724.45A451.29,451.29,0,0,1-989.9,1784.4a451.12,451.12,0,0,1,136-95.25c147.87-67.21,307.08-119.74,414.61-152,116.46-34.91,199.24-54.23,200.06-54.42l.18,0c79.2-17.51,159-36.22,237.3-55.59a17,17,0,1,1,8.19,33.09c-78.5,19.44-158.59,38.2-238,55.76-3,.71-84.3,19.79-198.18,53.93-106.44,31.91-264,83.89-410,150.27a418,418,0,0,0-211.3,215.55c-61.82,143.48-138.62,383.55-153.48,712.5a2409,2409,0,0,1-85.89,536.61c-7.24,26-14.36,50.4-21.17,72.56A17,17,0,0,1-1327.95,3269.46Z" transform="translate(1599.38 3616.59)"/><path class="cls-3" d="M-1377.35,3406.05a17,17,0,0,1-7.08-1.55,17,17,0,0,1-8.41-22.59c8.78-19.21,18.22-43.23,28-71.39A17.05,17.05,0,0,1-1343.1,3300a17,17,0,0,1,10.48,21.71c-10.16,29.16-20,54.18-29.22,74.35A17,17,0,0,1-1377.35,3406.05Z" transform="translate(1599.38 3616.59)"/><path class="cls-3" d="M66.76,1444.55a17.05,17.05,0,0,1-4.2-33.57c370.83-94.52,662.38-193,841.66-259,190.72-70.17,296.44-118.54,304.47-122.24a17,17,0,1,1,14.66,30.78c-4.47,2.07-111.76,51.49-307.35,123.45-114.66,42.19-236.33,83.53-361.62,122.87C397.92,1356,235.28,1402.14,71,1444A17.08,17.08,0,0,1,66.76,1444.55Z" transform="translate(1599.38 3616.59)"/><path class="cls-3" d="M-375.88,2247.19a17.05,17.05,0,0,1-16.18-11.68c-93.62-282.55-223.43-401.21-315.84-451-51.81-27.91-97.53-37.54-126.76-40.71-31.75-3.44-51.51-.22-51.71-.19h.06l-5.88-33.58c3.58-.62,88.91-14.69,197.94,43.13,63.19,33.51,121.48,84.44,173.26,151.37,64,82.77,118.3,190.52,161.29,320.25a17,17,0,0,1-10.82,21.54A17,17,0,0,1-375.88,2247.19Z" transform="translate(1599.38 3616.59)"/><path class="cls-3" d="M-80.58,3069.2a17,17,0,0,1-17-16.41c-1.2-32.38-3.62-66.09-7.19-100.19a17,17,0,0,1,15.18-18.73,17,17,0,0,1,18.73,15.18c3.65,34.86,6.12,69.33,7.35,102.48a17.05,17.05,0,0,1-16.41,17.66Z" transform="translate(1599.38 3616.59)"/><path class="cls-3" d="M-96,2901.9a17.05,17.05,0,0,1-16.85-14.63c-30.23-210.95-98-414.68-149.58-548.43-56-145.2-105.4-241.61-105.9-242.57a17,17,0,0,1,7.35-23,17,17,0,0,1,23,7.35c.5,1,50.62,98.67,107.22,245.45,33.23,86.19,62.21,172.29,86.13,255.91,29.94,104.65,52,205.73,65.57,300.41a17,17,0,0,1-14.46,19.29A16.8,16.8,0,0,1-96,2901.9Z" transform="translate(1599.38 3616.59)"/><path class="cls-3" d="M2157.2,3383.39a17.06,17.06,0,0,1-16.73-13.85l-17-88.8a17,17,0,0,1,33.48-6.4l17,88.8a17.08,17.08,0,0,1-16.76,20.25Z" transform="translate(1599.38 3616.59)"/><path class="cls-3" d="M2127.65,3229a17,17,0,0,1-16.72-13.85l-154.44-807.34a17,17,0,1,1,33.48-6.41l154.44,807.35a17.07,17.07,0,0,1-16.76,20.25Z" transform="translate(1599.38 3616.59)"/><path class="cls-3" d="M3257.3,3487.61a16.78,16.78,0,0,1-3.43-.35,17,17,0,0,1-13.28-20.11c57.8-282.47,92-583.94,110.49-787.1,20.05-220.17,26.5-375.35,26.56-376.89a17,17,0,1,1,34.06,1.38c-.06,1.55-6.54,157.59-26.67,378.6-11.82,129.79-26,256.33-42.05,376.08-20.11,149.77-43.32,289.32-69,414.76A17.06,17.06,0,0,1,3257.3,3487.61Z" transform="translate(1599.38 3616.59)"/><path class="cls-3" d="M4015.11,2234.09a17.05,17.05,0,0,1-15-25.07l127.13-238.37C4007,1747,3844.76,1564.26,3729.15,1449.81c-127-125.72-226.7-198.48-227.69-199.2a17,17,0,0,1,20-27.6c1,.74,102.4,74.68,231.15,202.07a2543.87,2543.87,0,0,1,208.66,233c78.69,99.9,146.08,202.37,200.3,304.57a17.06,17.06,0,0,1,0,16l-131.42,246.39A17,17,0,0,1,4015.11,2234.09Z" transform="translate(1599.38 3616.59)"/><path class="cls-3" d="M3892,3744.14a17.06,17.06,0,0,1-16.07-22.72c82.09-232.73,165.87-492.1,249-770.9a17,17,0,1,1,32.67,9.74c-83.32,279.34-167.28,539.24-249.55,772.5A17.06,17.06,0,0,1,3892,3744.14Z" transform="translate(1599.38 3616.59)"/><path class="cls-3" d="M3847.46,3868.26a17.06,17.06,0,0,1-16-22.9c7.48-20.49,15-41.12,22.19-61.29a17,17,0,1,1,32.09,11.5c-7.26,20.24-14.75,40.93-22.26,61.49A17.06,17.06,0,0,1,3847.46,3868.26Z" transform="translate(1599.38 3616.59)"/><path class="cls-3" d="M4160.32,2908.3a17.06,17.06,0,0,1-16.36-21.87c75.21-255.15,126.55-447.81,140.72-501.64-56.23-20.35-114.35-46.79-173-78.71a1648.38,1648.38,0,0,1-152.94-94.87c-86.11-60-139.05-108.14-141.26-110.16a17,17,0,1,1,23-25.17h0c.53.48,53.84,48.93,138.24,107.69,77.63,54,198.24,128.15,331.95,174.26a17.05,17.05,0,0,1,11,20.39c-.55,2.13-56.17,216.54-145,517.85A17,17,0,0,1,4160.32,2908.3Z" transform="translate(1599.38 3616.59)"/><path class="cls-3" d="M4042.29,2627.35a22.18,22.18,0,0,1-12.73-4l-244.7-170.68a22.29,22.29,0,0,1,25.5-36.57l244.7,170.69a22.29,22.29,0,0,1-12.77,40.58Z" transform="translate(1599.38 3616.59)"/><path class="cls-3" d="M5858.14,3856.4a17,17,0,0,1-16.88-14.87C5748.66,3121.14,5565.19,2649.4,5490.6,2480A224.22,224.22,0,0,0,5404,2379.93c-140.32-87.75-320.1-188.78-534.35-300.29a17,17,0,0,1,15.74-30.24c215,111.92,395.61,213.4,536.69,301.63a258.13,258.13,0,0,1,99.73,115.24C5597,2637,5781.91,3112.38,5875.07,3837.18a17,17,0,0,1-14.73,19.08A16.35,16.35,0,0,1,5858.14,3856.4Z" transform="translate(1599.38 3616.59)"/><path class="cls-3" d="M5873,3981.54a17.06,17.06,0,0,1-16.93-15.2c-2.11-19.36-4.34-39.05-6.64-58.52a17,17,0,1,1,33.85-4c2.31,19.57,4.56,39.36,6.68,58.83a17,17,0,0,1-15.09,18.79A16.86,16.86,0,0,1,5873,3981.54Z" transform="translate(1599.38 3616.59)"/><path class="cls-3" d="M4818.46,2051a16.89,16.89,0,0,1-7.78-1.9c-243.63-125.31-485.74-240.83-646-315.68-172.45-80.57-287.21-131.54-294-134.55a17,17,0,1,1,13.56-31.28c3.74,1.66,119.64,53.07,294.88,134.94,160.48,75,403,190.7,647.11,316.26a17.05,17.05,0,0,1-7.81,32.21Z" transform="translate(1599.38 3616.59)"/><path class="cls-3" d="M5211.43,3711.17a17.07,17.07,0,0,1-15.9-23.18c7.17-18.62,14.29-38,21.18-57.77a17,17,0,0,1,32.18,11.24c-7,20.05-14.25,39.83-21.55,58.78A17.06,17.06,0,0,1,5211.43,3711.17Z" transform="translate(1599.38 3616.59)"/><path class="cls-3" d="M5253.86,3589.62a17.06,17.06,0,0,1-16.25-22.2c70.58-222.57,114.21-472.6,138.39-643.16,26.23-185.05,35.85-319.08,35.94-320.41a17,17,0,0,1,34,2.4c-.1,1.34-9.78,136.33-36.16,322.5-15.49,109.35-33.64,214.76-53.93,313.32-25.39,123.35-54.24,236.28-85.75,335.65A17.07,17.07,0,0,1,5253.86,3589.62Z" transform="translate(1599.38 3616.59)"/><path class="cls-3" d="M3903.41,337.7a158.23,158.23,0,0,1-18.27-1.09,17,17,0,1,1,4-33.86c52.66,6.17,94-21.43,123-82.06a250.15,250.15,0,0,0,21.81-72.84c40.7-286.43,72.87-455.93,73.2-457.61a17,17,0,0,1,19.93-13.55,17,17,0,0,1,13.55,19.93c-.32,1.68-32.35,170.48-72.92,456a284.81,284.81,0,0,1-24.81,82.74c-14.72,30.81-33.14,55.18-54.75,72.44C3963.27,327.69,3934.84,337.7,3903.41,337.7Z" transform="translate(1599.38 3616.59)"/><path class="cls-3" d="M1798.15,48.47A17,17,0,0,1,1792,47.3c-79.61-31-138.45-93.52-174.9-185.74-28.48-72.07-43.32-162.46-44.08-268.66-.68-93.74,9.94-182.92,19-241.22,9.79-63.22,19.61-103.78,20-105.47a17,17,0,0,1,20.6-12.52,17,17,0,0,1,12.52,20.6c-.13.53-10,41.33-19.55,103.22-8.82,57.08-19.18,144.3-18.47,235.73,1.22,158,36.44,359.62,197.27,422.29a17.05,17.05,0,0,1-6.2,32.94Z" transform="translate(1599.38 3616.59)"/><path class="cls-3" d="M1761.35-1568.11c-47.85,0-90.78-4.8-128.15-14.35-61.33-15.68-105.47-43.8-131.2-83.58-43.52-67.28-32-163.27,34.41-285.28a17,17,0,0,1,23.12-6.83,17.05,17.05,0,0,1,6.83,23.12c-31.62,58.14-50.06,109.8-54.8,153.54-4.15,38.34,2.26,71,19.07,96.94,20.92,32.34,58.27,55.57,111,69.06,34.31,8.77,75.32,13.23,120.61,13.23,18.51,0,37.73-.74,57.51-2.24a17,17,0,0,1,18.29,15.71,17,17,0,0,1-15.71,18.28Q1790.66-1568.11,1761.35-1568.11Z" transform="translate(1599.38 3616.59)"/><path class="cls-3" d="M1888-1578a17.05,17.05,0,0,1-16.84-14.55,17,17,0,0,1,14.36-19.36c85-12.6,171.07-36.38,242.29-67,69.17-29.73,117-63.16,131.18-91.74a17,17,0,0,1,22.85-7.68,17,17,0,0,1,7.68,22.85c-9.53,19.18-28.14,38.61-55.32,57.74-24.72,17.4-56,34.27-92.93,50.15-73.85,31.74-162.9,56.38-250.76,69.39A17.78,17.78,0,0,1,1888-1578Z" transform="translate(1599.38 3616.59)"/><path class="cls-3" d="M1855.14-379.25a16.42,16.42,0,0,1-3-.26,17,17,0,0,1-13.86-19.72l58.9-337.32c13-74.14,33.79-144.32,61.87-208.57,22.52-51.53,49.73-99.4,80.89-142.28,53.45-73.55,99.83-106.87,101.78-108.26a17,17,0,0,1,23.76,4,17,17,0,0,1-4,23.76c-1,.74-45,32.77-94.94,101.89-46.39,64.2-107.6,174.48-135.75,335.3l-58.9,337.3A17,17,0,0,1,1855.14-379.25Z" transform="translate(1599.38 3616.59)"/><path class="cls-3" d="M1597.27-947q-12.45,0-24.73-.6c-56.45-2.8-135.26-16.51-190.19-66-27.8-25-46.24-56.51-54.82-93.54-9.29-40.1-6.93-87,7-139.44a17,17,0,0,1,20.85-12.09,17.05,17.05,0,0,1,12.09,20.86c-23.49,88.28-10.82,155.19,37.68,198.88,47.47,42.76,118.14,54.75,169.06,57.27,70.61,3.5,132.1-9.11,166.1-22.08,80.9-30.85,151.85-86.77,205.19-161.7,40.16-56.41,85.71-101,116.85-128.5,33.83-29.86,58-46.28,59-47a17.05,17.05,0,0,1,23.67,4.59,17.05,17.05,0,0,1-4.59,23.67c-.51.34-23.95,16.32-56,44.69-29.66,26.23-73,68.73-111.15,122.29-57.25,80.43-133.61,140.52-220.81,173.78C1711.09-956.08,1653.42-947,1597.27-947Z" transform="translate(1599.38 3616.59)"/><path class="cls-3" d="M1594.1-1084.49q-16.18,0-31.59-1.23c-86.77-6.91-155-42.91-202.72-107-9.11-12.23-15.39-32-18.65-58.83-3-24.86-3.16-53.91-.41-84a473.64,473.64,0,0,1,18.27-94.29c10.37-33.76,24.09-63,40.78-86.83a17,17,0,0,1,23.74-4.2,17,17,0,0,1,4.19,23.74c-27.75,39.67-47.08,99.7-53,164.69-2.54,27.72-2.43,54.27.3,76.77,3.55,29.15,10.2,40,12.15,42.59,76.25,102.34,210.35,122,398.56,58.47,75.21-25.4,144-59.66,188.41-83.94,48.31-26.39,79.15-47,79.46-47.23a17.05,17.05,0,0,1,23.65,4.65,17,17,0,0,1-4.64,23.65c-1.29.87-32.07,21.47-81.53,48.52-45.62,25-116.28,60.2-193.85,86.45C1722.49-1097.24,1654.34-1084.49,1594.1-1084.49Z" transform="translate(1599.38 3616.59)"/><path class="cls-3" d="M1525-578.28c-28.82,0-55.1-7.81-78.63-23.44C1417.35-621,1393-652.28,1374-694.65c-14.72-32.76-26.36-72.38-34.62-117.75-13.92-76.52-13.45-142.47-13.42-145.24a17,17,0,0,1,17-16.89h.17a17,17,0,0,1,16.88,17.2h0A834.3,834.3,0,0,0,1373-818c12,65.72,37.78,151.66,92.32,187.86,35.45,23.53,78.67,23.74,132.12.64a17.06,17.06,0,0,1,22.41,8.89,17.06,17.06,0,0,1-8.89,22.41C1580.26-584.91,1551.56-578.28,1525-578.28Z" transform="translate(1599.38 3616.59)"/><path class="cls-3" d="M1530.91-436.08a123.2,123.2,0,0,1-70.24-21.27c-24.49-16.49-45.29-42.61-61.81-77.63-12.73-27-23-59.44-30.63-96.46a690.5,690.5,0,0,1-13.56-118.12,17.06,17.06,0,0,1,16.86-17.24,17,17,0,0,1,17.23,16.86c0,2.38,3.54,205.51,91,264.32,28.58,19.23,62.93,20.53,105,4a17,17,0,0,1,22.1,9.62,17.05,17.05,0,0,1-9.63,22.1Q1562-436.07,1530.91-436.08Z" transform="translate(1599.38 3616.59)"/><path class="cls-3" d="M1591-289.52c-81.34,0-141.51-46.28-174-133.82-23.56-63.46-24.12-125.93-24.13-128.56a17.05,17.05,0,0,1,17-17.13h.08a17,17,0,0,1,17,17c0,.7.64,59.82,22.27,117.61,27.54,73.55,75.24,110.84,141.78,110.84a17,17,0,0,1,17,17.05A17,17,0,0,1,1591-289.52Z" transform="translate(1599.38 3616.59)"/><path class="cls-3" d="M1626.62-126a17,17,0,0,1-2.92-.25A165.14,165.14,0,0,1,1534-172.47c-19.56-19.36-35.87-44.29-48.46-74.08-21-49.8-24.55-96.08-24.69-98a17,17,0,0,1,15.79-18.21A17,17,0,0,1,1494.86-347a311.48,311.48,0,0,0,22.43,88c24.41,57.21,62.16,90.58,112.2,99.2a17,17,0,0,1,13.9,19.69A17,17,0,0,1,1626.62-126Z" transform="translate(1599.38 3616.59)"/><path class="cls-3" d="M1727.27,26C1670.78,26,1620.6-6.26,1581-68.57c-32.88-51.7-46.9-105.7-47.48-108a17.05,17.05,0,0,1,12.3-20.74A17,17,0,0,1,1566.51-185h0c.13.51,13.47,51.63,43.62,98.75,38.12,59.58,84.32,85.31,137.33,76.46a17,17,0,0,1,5.61,33.63A156.29,156.29,0,0,1,1727.27,26Z" transform="translate(1599.38 3616.59)"/><path class="cls-3" d="M1557.35-1337.34a17,17,0,0,1-4.64-.64,225.27,225.27,0,0,1-64-29.52,221.36,221.36,0,0,1-52.08-48.53c-26.69-34.46-39.62-83.43-36.4-137.87,1.78-30,8.39-61.19,19.66-92.81,12.22-34.3,30-69.12,52.71-103.49a17.06,17.06,0,0,1,23.63-4.81,17.05,17.05,0,0,1,4.8,23.63c-40.33,60.91-63.42,123-66.76,179.49-2.74,46.21,7.67,87.05,29.31,115a188.31,188.31,0,0,0,98.45,66.11,17,17,0,0,1,11.76,21A17,17,0,0,1,1557.35-1337.34Z" transform="translate(1599.38 3616.59)"/><path class="cls-3" d="M1630.31-1329.14c-2.34,0-4.67,0-7,0a17,17,0,0,1-16.87-17.22,17,17,0,0,1,17.21-16.87c135.81,1.34,258.11-39,336.8-73.09,85.71-37.13,139.78-75.11,140.32-75.49a17,17,0,0,1,23.76,4.06,17,17,0,0,1-4.05,23.76c-2.28,1.61-56.91,40.06-145.63,78.58a969.2,969.2,0,0,1-157.61,53.21C1753.84-1336.9,1691-1329.14,1630.31-1329.14Z" transform="translate(1599.38 3616.59)"/><path class="cls-3" d="M1881.71-1702.68c-23.66,0-38-.59-39.41-.65a16.46,16.46,0,0,1-2.42-.28c-73.77-13.9-135.06-34.32-182.18-60.7-43-24.07-75.22-53.63-95.81-87.86-16.92-28.14-26.14-59.66-27.4-93.7-1-28.15,3.35-58.26,13.07-89.49a428.12,428.12,0,0,1,35.15-81.6,440.73,440.73,0,0,1,53.44-75.42c43.67-49.68,98-89.63,161.6-118.72a17,17,0,0,1,22.59,8.4,17,17,0,0,1-8.4,22.59c-114.67,52.5-197,143-231.83,254.88-18.67,60-15,112.3,11,155.49,37.93,63.08,123.33,107.62,253.84,132.4,11,.38,96.73,2.91,202-8.05,147.26-15.32,265.89-49.9,343.07-100a17,17,0,0,1,23.58,5,17,17,0,0,1-5,23.58c-45.88,29.79-104.38,54.26-173.88,72.75-55.07,14.65-117.22,25.63-184.74,32.64A1664.54,1664.54,0,0,1,1881.71-1702.68Z" transform="translate(1599.38 3616.59)"/><path class="cls-3" d="M1568.75-752.53c-1.63,0-3.25,0-4.87,0-65-1.17-121.47-25.67-168-72.82-1.14-1.15-28.89-29.49-52.16-83.37A386.17,386.17,0,0,1,1316-1009c-6-43.76-5.17-89.88,2.62-137.08a17,17,0,0,1,19.59-14,17,17,0,0,1,14,19.59c-16.33,99,3.38,173.31,22.79,218.24,20.74,48,44.86,72.68,45.1,72.92,41.22,41.77,91.08,62.67,149.09,62.67q70.38,0,156.5-41a17.06,17.06,0,0,1,22.73,8,17.06,17.06,0,0,1-8,22.73C1678.6-767.46,1620.88-752.53,1568.75-752.53Z" transform="translate(1599.38 3616.59)"/><path class="cls-3" d="M1791.58-826.88a17,17,0,0,1-14.63-8.28,17,17,0,0,1,5.84-23.39c125.52-75.32,224.68-182.2,229.85-187.82.2-.22.41-.44.62-.65a17,17,0,0,1,24.1,0,17,17,0,0,1,.82,23.23l-.47.52c-5.73,6.23-108,116.3-237.38,193.95A16.94,16.94,0,0,1,1791.58-826.88Z" transform="translate(1599.38 3616.59)"/><path class="cls-3" d="M3965.29-666.41a17.21,17.21,0,0,1-4.18-.52,17.05,17.05,0,0,1-12.36-20.7c20.73-82.25,30.42-182.9,34.9-252.86,4.88-76.14,4.81-133.41,4.8-134a17,17,0,0,1,17-17.08h0a17,17,0,0,1,17.05,17c0,.58.08,58.77-4.86,136-4.57,71.45-14.5,174.44-35.88,259.27A17.07,17.07,0,0,1,3965.29-666.41Z" transform="translate(1599.38 3616.59)"/><path class="cls-3" d="M2552.14-1820.47a179.49,179.49,0,0,1-27.81-2.09c-21.16-3.32-40.22-10.63-56.65-21.72a134.58,134.58,0,0,1-35.76-35.88c-23.21-33.95-31-76.87-21.33-117.76,9.47-40.09,26-74.83,49.21-103.28a222.64,222.64,0,0,1,68.08-55.87c45-24.08,85-26.46,86.7-26.55a17.05,17.05,0,0,1,17.93,16.12,17,17,0,0,1-16.07,17.92h0c-.35,0-35.2,2.3-73.72,23.24-50.83,27.63-84.12,73.47-98.95,136.26-7.46,31.57-1.52,64.63,16.3,90.68,16.38,24,39.78,38.49,69.55,43.16,35.61,5.59,80.33-2.66,132.92-24.52,64.79-26.94,141.57-74.67,228.21-141.86a17,17,0,0,1,23.92,3,17.05,17.05,0,0,1-3,23.92c-89,69-168.43,118.3-236,146.4C2629.52-1830.12,2588.13-1820.47,2552.14-1820.47Z" transform="translate(1599.38 3616.59)"/><path class="cls-3" d="M3069-1570.4a223.24,223.24,0,0,1-59.73-8.27c-39.48-11-72.91-32-99.34-62.69-30.6-35.47-51.94-84.06-63.45-144.42a17.06,17.06,0,0,1,13.56-19.94,17,17,0,0,1,19.93,13.56c19,99.65,65.56,160.43,138.42,180.63a186.34,186.34,0,0,0,174.94-41.15,190,190,0,0,0,60.89-172.85c-12.68-77.76-59.26-143.36-96.11-184.71-50.69-56.87-119.12-94.69-192.69-106.49-68.77-11-137.56,0-204.44,32.81-50.45,24.73-80.78,53.25-81.08,53.53a17.05,17.05,0,0,1-24.09-.6,17,17,0,0,1,.57-24.08c1.35-1.28,33.67-31.84,88.45-58.9a399.35,399.35,0,0,1,99.13-34,358.84,358.84,0,0,1,126.86-2.44A355.79,355.79,0,0,1,3087.36-2110a367.32,367.32,0,0,1,96.22,77.09c39.86,44.72,90.31,116.05,104.31,201.9a225.19,225.19,0,0,1-10.71,114,226.31,226.31,0,0,1-61.07,89.68A223.31,223.31,0,0,1,3122-1577,216.19,216.19,0,0,1,3069-1570.4Z" transform="translate(1599.38 3616.59)"/><path class="cls-3" d="M2826.09-1633c-56.47,0-101.67-15.15-135-45.35-17-15.38-30.63-34.62-40.59-57.19a227.94,227.94,0,0,1-16.53-58.72c-5.31-35.9-1.94-63.91-1.8-65.09a17,17,0,0,1,19-14.81,17.05,17.05,0,0,1,14.82,19h0a235.16,235.16,0,0,0,1.83,56.89c6.22,40.77,21.79,72.67,46.3,94.81,41.35,37.36,107.95,46,198,25.74a17,17,0,0,1,20.37,12.88,17,17,0,0,1-12.88,20.38Q2868.67-1633,2826.09-1633Z" transform="translate(1599.38 3616.59)"/><path class="cls-3" d="M3591-1617.16c-39.8,0-77.31-4.69-112.18-14.08-50.71-13.65-95.91-37.16-134.35-69.88-65.59-55.82-88.49-118.79-89.44-121.45a17.06,17.06,0,0,1,10.36-21.77,17,17,0,0,1,21.75,10.32c.07.19,5.39,14.75,18,35.28a304.58,304.58,0,0,0,62.73,72.76c79.28,66.71,185.92,89,316.94,66.23a191,191,0,0,0,101.72-51.79c42.62-41.85,57.31-94.2,43.64-155.6-.06-.28-.12-.57-.17-.85s-5.06-28.4-22.38-63.85c-22.9-46.87-55.35-83.74-96.45-109.58-79-49.65-186.28-55.76-318.9-18.15a17.12,17.12,0,0,1-4.66.65,17,17,0,0,1-16.39-12.4,17,17,0,0,1,11.75-21c76.09-21.58,145.64-29.52,206.72-23.6,52.72,5.11,99.85,20.58,140.07,46a286.9,286.9,0,0,1,68.56,60.73,319.12,319.12,0,0,1,40.56,63.76c18,37.35,23.87,67.06,24.64,71.32,8.89,40.16,7.31,77.89-4.68,112.17-9.64,27.56-25.94,52.73-48.43,74.81a224.89,224.89,0,0,1-119.76,61A583.25,583.25,0,0,1,3591-1617.16Z" transform="translate(1599.38 3616.59)"/><path class="cls-3" d="M3493.31-1849.92c-13.29,0-27.92-.41-43.41-1.47-37.27-2.56-71.8-8.45-102.63-17.5-39.22-11.5-72.61-28.21-99.25-49.65-46.71-37.6-73-89.51-78-154.3a283.6,283.6,0,0,1,15.23-116.9,285.94,285.94,0,0,1,58.23-97.49,288.84,288.84,0,0,1,92.76-68.34,288.85,288.85,0,0,1,116.52-26.89,17.05,17.05,0,0,1,17.39,16.7,17,17,0,0,1-16.69,17.39c-71.31,1.45-136.91,31.29-184.72,84-47.17,52-70.16,119.11-64.73,188.86,4.29,55,26.26,98.85,65.32,130.32,52.75,42.5,128.19,55.92,182.18,59.7,59.75,4.19,107.28-2.21,107.75-2.27a17.05,17.05,0,0,1,19.22,14.55,17,17,0,0,1-14.54,19.22C3562.38-1853.75,3534.17-1849.92,3493.31-1849.92Z" transform="translate(1599.38 3616.59)"/><path class="cls-3" d="M3541.63-1550.47a16.93,16.93,0,0,1-10.61-3.72,17,17,0,0,1-2.7-24c33-41.46,78.44-67.66,134.93-77.87,43.27-7.83,92.88-6.23,147.45,4.76,135,27.17,268.2-54.87,303.33-186.79,33.9-127.3-20.31-232.76-55.64-284.29a17,17,0,0,1,4.42-23.7,17.06,17.06,0,0,1,23.7,4.42c38.63,56.36,97.86,171.87,60.46,312.35a290.7,290.7,0,0,1-129.45,173.56,295,295,0,0,1-154.62,43.76,298.72,298.72,0,0,1-58.93-5.89c-78.79-15.86-185.94-18.17-249,60.94A17,17,0,0,1,3541.63-1550.47Z" transform="translate(1599.38 3616.59)"/><path class="cls-3" d="M2828.76-2110a17,17,0,0,1-16-11.31c-1-2.91-25.48-72.37-19.78-159.55,3.37-51.68,16.68-98.84,39.56-140.17,28.64-51.72,72.23-94.12,129.57-126l.45-.24c1.22-.63,30.51-15.65,76.89-26.14a402.91,402.91,0,0,1,81.76-10,367,367,0,0,1,99.54,11.78,178.7,178.7,0,0,1,53,23.6,178,178,0,0,1,41.8,38.26,176.06,176.06,0,0,1,27.62,49.43,174,174,0,0,1,10.45,57.11c.58,40.4-12.55,73.55-39,98.54-20.79,19.63-49.82,33.82-86.3,42.2-39.51,9.07-89,11.56-147,7.4a17,17,0,0,1-15.79-18.21,17.06,17.06,0,0,1,18.22-15.79c54.68,3.91,100.77,1.68,137-6.63,30.49-7,54.21-18.35,70.52-33.76,19.23-18.16,28.77-42.81,28.33-73.27-.9-63.67-45.08-119.56-107.44-135.91-65.38-17.14-125.3-10.43-164-1.78-40.58,9.06-67.18,22.09-69.65,23.33-93.54,52.13-144.48,132.36-151.41,238.45-5.23,80.2,17.63,145.2,17.86,145.85a17,17,0,0,1-10.3,21.79A17,17,0,0,1,2828.76-2110Z" transform="translate(1599.38 3616.59)"/><path class="cls-3" d="M4003.38-1355.26a291.62,291.62,0,0,1-41.44-3c-49.21-7-88.65-26-117.22-56.38-33.57-35.67-51.82-86.9-54.26-152.26a17,17,0,0,1,16.4-17.67,17,17,0,0,1,17.67,16.4c3.93,105.39,50.46,163,142.25,176.16a251.6,251.6,0,0,0,35.64,2.55c81.81,0,158-40.44,204.63-110.56,53.4-80.33,55.94-181.4,6.61-263.75-36.65-61.18-84.34-92.46-84.82-92.76a17,17,0,0,1-5.13-23.55,17.05,17.05,0,0,1,23.56-5.13c2.22,1.41,54.67,35.53,95.63,103.92a285.26,285.26,0,0,1,32.3,77.66,273.18,273.18,0,0,1,7.78,78.73,283.82,283.82,0,0,1-47.54,143.75,283.62,283.62,0,0,1-114,99.36,272.5,272.5,0,0,1-75.51,23.26A277.77,277.77,0,0,1,4003.38-1355.26Z" transform="translate(1599.38 3616.59)"/><path class="cls-3" d="M2423.6-1944.12a17,17,0,0,1-14.31-7.76,334.65,334.65,0,0,1-48.42-119.65,352.24,352.24,0,0,1-3.85-104.72c6.68-60.68,26.14-101.51,27-103.22,35.13-73.26,82.72-128.14,141.41-163.06,47.11-28,101.19-43.18,160.73-45,52.44-1.62,99.51,7.62,129.77,15.65,32.91,8.74,53.46,17.89,54.32,18.28a17,17,0,0,1,8.58,22.53,17,17,0,0,1-22.53,8.57c-.65-.29-19.95-8.76-50.26-16.73-28.09-7.38-71.7-15.83-120-14.19-122,4.17-213.27,67.68-271.34,188.76-.19.39-18.07,38.23-23.94,93.42-7.77,73.11,8.08,140.68,47.11,200.83a17,17,0,0,1-5,23.57A16.92,16.92,0,0,1,2423.6-1944.12Z" transform="translate(1599.38 3616.59)"/><path class="cls-3" d="M2466.2-2355.54a17,17,0,0,1-7-1.51,17,17,0,0,1-8.54-22.54c57.66-128,137.36-206.91,236.9-234.64,36.5-10.17,75.61-13.29,116.24-9.26,32.2,3.19,65.41,10.86,98.72,22.79,56.56,20.25,93.71,45.67,95.26,46.74a17,17,0,0,1,4.35,23.71,17,17,0,0,1-23.69,4.36h0c-.36-.24-35.74-24.36-88.39-43.07-47.78-17-120.14-32.9-193.58-12.36-89.22,25-161.47,97.53-214.73,215.73A17,17,0,0,1,2466.2-2355.54Z" transform="translate(1599.38 3616.59)"/><path class="cls-3" d="M3818.57-1344.82c-43,0-80.45-10.41-112.09-31.23a189.22,189.22,0,0,1-50.86-49.94,241,241,0,0,1-28.09-54.09c-12.57-33.71-15-60.81-15.12-61.94a17,17,0,0,1,15.52-18.45,17.06,17.06,0,0,1,18.45,15.49c0,.44,2.33,24.54,13.47,54,14.56,38.5,36.62,67.64,65.58,86.61,48.63,31.86,115.92,33.83,200,5.86a17,17,0,0,1,21.56,10.79,17,17,0,0,1-10.79,21.55Q3872-1344.81,3818.57-1344.82Z" transform="translate(1599.38 3616.59)"/><path class="cls-3" d="M4301.74-1763.4q-7,0-14-.41c-65.82-3.89-98.22-35.17-99.57-36.5l24-24.26-.12-.11c.07.06,6.4,6,19.07,12.26,11.69,5.76,31.36,13,58.67,14.58,77.21,4.56,146.26-35.88,180.21-105.54,34.36-70.49,23.49-150.79-28.35-209.57-3.85-4.36-7.91-8.78-12.07-13.13a17.05,17.05,0,0,1,.54-24.1,17.05,17.05,0,0,1,24.1.54c4.47,4.68,8.84,9.43,13,14.14,31.18,35.35,50.3,77.94,55.29,123.17a225.91,225.91,0,0,1-21.86,123.89,223.86,223.86,0,0,1-83.14,92.65C4383.11-1774.49,4343.34-1763.4,4301.74-1763.4Z" transform="translate(1599.38 3616.59)"/><path class="cls-3" d="M4498.14-1911.88a17,17,0,0,1-16.3-12.08,17,17,0,0,1,11.33-21.27c25.84-7.88,46.85-24.81,62.44-50.33,29.78-48.76,28.72-111.88-2.69-160.83-91.93-143.23-212.21-130.25-275.73-109.76-28.15,9.08-51.06,28.13-64.52,53.64-45.72,86.7,62.83,171.24,63.93,172.08a17,17,0,0,1,3.17,23.9,17,17,0,0,1-23.89,3.17,288.1,288.1,0,0,1-58-63.23c-34.77-52.41-40.07-104.91-15.33-151.83a142.37,142.37,0,0,1,35.29-43.37,147,147,0,0,1,48.92-26.8c33.57-10.83,85.6-21,142.79-7.85a243.86,243.86,0,0,1,88.31,40.38c31.14,22.47,59.33,53.17,83.78,91.26a188,188,0,0,1,29.83,98.06,183,183,0,0,1-26.74,98.94c-20.07,32.87-47.52,54.8-81.59,65.18A17.16,17.16,0,0,1,4498.14-1911.88Z" transform="translate(1599.38 3616.59)"/><path class="cls-3" d="M4483.37-1603a162.58,162.58,0,0,1-56.53-10.13c-34.48-12.77-61.16-35.59-79.29-67.81a17.06,17.06,0,0,1,6.5-23.22,17.06,17.06,0,0,1,23.22,6.5c14,25,34.72,42.67,61.41,52.56a128.47,128.47,0,0,0,44.68,8,132.84,132.84,0,0,0,96-41.53c43.58-45.74,55.11-113.09,34.26-200.19-16.13-67.39-46.54-121.4-46.85-121.94a17.05,17.05,0,0,1,6.4-23.24,17,17,0,0,1,23.23,6.38c1.33,2.34,32.84,58.16,50.18,130.08,10.34,42.85,13.45,82.54,9.26,118-5.39,45.53-22.82,84-51.81,114.45A166.89,166.89,0,0,1,4483.37-1603Z" transform="translate(1599.38 3616.59)"/><path class="cls-3" d="M4185.07-1353.19c-72.54,0-124.18-8.28-126.84-8.71a17.05,17.05,0,0,1-14.07-19.58,17.06,17.06,0,0,1,19.57-14.07h0c.78.13,78.67,12.57,175.31,6.65,87.85-5.39,209.78-27.47,291.73-102.1,69.76-63.54,101-156.28,92.86-275.66a17,17,0,0,1,15.84-18.17,17,17,0,0,1,18.17,15.84c8.89,130.34-26.1,232.37-104,303.27-39.74,36.17-90.77,64.1-151.67,83-48.1,14.94-102.49,24.32-161.65,27.89C4221-1353.66,4202.42-1353.19,4185.07-1353.19Z" transform="translate(1599.38 3616.59)"/><path class="cls-3" d="M2093.9-1716.79a16.54,16.54,0,0,1-2.52-.19c-113.1-16.79-206.6-52.77-277.91-106.93-57.61-43.77-100.82-99.3-128.44-165-24.49-58.29-31.86-113.93-33.74-150.35-2-39.67,1.74-65.6,1.9-66.68a17,17,0,0,1,19.38-14.34,17,17,0,0,1,14.34,19.35h0c0,.24-3.52,24.57-1.5,61.37,1.86,33.71,8.84,85.16,31.62,138.8,58.27,137.24,185.91,221.39,379.35,250.11a17.05,17.05,0,0,1,14.36,19.37A17,17,0,0,1,2093.9-1716.79Z" transform="translate(1599.38 3616.59)"/><path class="cls-3" d="M3602.76-2083.79a17,17,0,0,1-12.44-5.39,17.05,17.05,0,0,1,.77-24.08,202.41,202.41,0,0,0,14.1-15.43c67.85-81,85.75-188.41,47.87-287.24-38-99.23-123.52-167.43-228.68-182.43-98.17-14-201.36,2-306.72,47.61a17,17,0,0,1-22.41-8.87,17,17,0,0,1,8.87-22.41c111.22-48.14,220.59-65,325.07-50.08a327.52,327.52,0,0,1,87.11,24.91,315.94,315.94,0,0,1,72.88,45.22,324.83,324.83,0,0,1,95.71,133.85,323.85,323.85,0,0,1,18.27,162.87,313.67,313.67,0,0,1-23.87,82,326.3,326.3,0,0,1-48,76.47,228.64,228.64,0,0,1-16.92,18.41A17,17,0,0,1,3602.76-2083.79Z" transform="translate(1599.38 3616.59)"/><path class="cls-3" d="M2326.39-1775.87c-.39,0-.78,0-1.17,0-86.93-5.87-165.68-24.89-234-56.53-59.41-27.49-111.89-64.91-156-111.2-81.55-85.64-119.9-186.15-137.7-255.39a308.3,308.3,0,0,1-2.8-141.28A303,303,0,0,1,1856-2467.59a287,287,0,0,1,125.22-89.07,17,17,0,0,1,21.85,10.17,17,17,0,0,1-10.17,21.86A253.34,253.34,0,0,0,1882.39-2446c-53.94,65.88-73.34,155-51.88,238.48,35.59,138.36,147.47,374,497,397.6a17,17,0,0,1,15.86,18.15A17.05,17.05,0,0,1,2326.39-1775.87Z" transform="translate(1599.38 3616.59)"/><path class="cls-3" d="M2781.94-2590.87a17.07,17.07,0,0,1-7.28-1.64,17,17,0,0,1-8.11-22.7c1.12-2.38,28.28-59.14,85.36-125.55a644.16,644.16,0,0,1,109.82-101.8c49.38-35.82,102.7-62.71,158.47-79.93,77.72-24,161.14-29.52,248-16.42,48.42,7.31,98.72,20.58,149.48,39.42,54.07,20.08,110.13,47,166.62,80.11a17,17,0,0,1,6.1,23.32,17.05,17.05,0,0,1-23.32,6.1c-197.14-115.44-377.75-149.07-536.79-100-118.39,36.56-202.65,113.37-252.5,171.38-54.11,63-80.14,117.37-80.4,117.92A17,17,0,0,1,2781.94-2590.87Z" transform="translate(1599.38 3616.59)"/><path class="cls-3" d="M3267.87-2596.18a17,17,0,0,1-11.55-4.51,17.05,17.05,0,0,1-1-24.09c1.88-2,46.88-50.5,118.92-98.43,42.45-28.24,85.5-50.38,128-65.82,53.59-19.49,106.4-28.3,157-26.2,114.83,4.78,218.05,65,306.81,178.92a17,17,0,0,1-3,23.92,17,17,0,0,1-23.92-3c-82.31-105.68-177-161.47-281.32-165.81-104.9-4.36-201.82,44.55-264.65,86.35-68.66,45.68-112.31,92.68-112.74,93.15A17,17,0,0,1,3267.87-2596.18Z" transform="translate(1599.38 3616.59)"/><path class="cls-3" d="M4274.36-2392.82a17,17,0,0,1-14.37-7.86c-15.63-24.44-36.14-48.74-61-72.22-125.1-118.33-307.13-163.69-475-118.38-83.68,22.58-142.43,53-143,53.31a17,17,0,0,1-23-7.22,17.05,17.05,0,0,1,7.22-23c2.52-1.31,62.66-32.47,149.91-56a540.48,540.48,0,0,1,270.29-2.89,531.86,531.86,0,0,1,237.07,129.41c26.84,25.39,49.13,51.84,66.25,78.63a17,17,0,0,1-5.18,23.54A17,17,0,0,1,4274.36-2392.82Z" transform="translate(1599.38 3616.59)"/><path class="cls-3" d="M4123.87-2003a17.06,17.06,0,0,1-16.29-12.06c-32.8-107.17-87.53-178.23-162.65-211.22-63-27.68-129.76-23.3-174.64-14.76-49.53,9.43-84.29,25.89-84.64,26.06a17,17,0,0,1-22.73-8,17,17,0,0,1,8-22.72c1.54-.74,38.33-18.26,91.9-28.6a384.49,384.49,0,0,1,91.91-7c37.16,1.85,72,9.82,103.67,23.67,84.76,37.12,145.92,115.36,181.8,232.57a17.06,17.06,0,0,1-11.31,21.29A17.37,17.37,0,0,1,4123.87-2003Z" transform="translate(1599.38 3616.59)"/><path class="cls-3" d="M2386.59-2220.11a17.06,17.06,0,0,1-16-11.26c-20.62-57-28.21-121-22.55-190.24a566.28,566.28,0,0,1,40.83-169.79,570.56,570.56,0,0,1,88.07-146.46A575.43,575.43,0,0,1,2604.31-2852a578.26,578.26,0,0,1,158.9-72.82c50.23-14.36,103.91-24,159.57-28.55a968,968,0,0,1,136.08-1.43c78.26,4.61,129.2,16.79,131.34,17.3a17,17,0,0,1,12.55,20.58,17.06,17.06,0,0,1-20.58,12.56c-.71-.17-50.88-12.09-126.15-16.46-69.3-4-174.74-2.3-283.44,28.77-215.53,61.61-372.5,251.78-390.6,473.2-5.25,64.3,1.69,123.47,20.64,175.88a17,17,0,0,1-10.23,21.83A17.09,17.09,0,0,1,2386.59-2220.11Z" transform="translate(1599.38 3616.59)"/><path class="cls-3" d="M4420.87-1002.37a225.7,225.7,0,0,1-33.56-2.57,614.89,614.89,0,0,1-169.68-51.52,17,17,0,0,1-8.19-22.67,17,17,0,0,1,22.67-8.19,580.87,580.87,0,0,0,160.27,48.67c86,12.94,152-30.42,185.88-122.09,14.91-40.37,22.83-88.7,23.54-143.65a17.05,17.05,0,0,1,17.05-16.86,17,17,0,0,1,17,17h0v.22c-.75,58.86-9.39,111-25.66,155.06-9.69,26.24-22.12,49.55-37,69.3a199.3,199.3,0,0,1-51.38,48.38,180.2,180.2,0,0,1-63.24,25.31A198.13,198.13,0,0,1,4420.87-1002.37Z" transform="translate(1599.38 3616.59)"/><path class="cls-3" d="M4166.3-1086.3a17,17,0,0,1-8.84-2.48c-5.35-3.25-10.69-6.62-15.89-10-106.34-69.15-216.36-108.83-217.46-109.23a17,17,0,0,1-10.32-21.78,17,17,0,0,1,21.78-10.32c1.17.42,29,10.41,70.79,29.34,38.47,17.45,96.38,46.08,153.8,83.41,4.91,3.19,10,6.37,15,9.44a17,17,0,0,1,5.7,23.42A17,17,0,0,1,4166.3-1086.3Z" transform="translate(1599.38 3616.59)"/><path class="cls-3" d="M4454.38-1180.24a343.58,343.58,0,0,1-56.84-5c-51.31-8.63-109.76-28.39-173.71-58.71-108-51.19-193.51-114.09-197.1-116.74a17,17,0,0,1-3.57-23.84,17.05,17.05,0,0,1,23.84-3.58c1,.73,86.91,63.87,191.89,113.58,61,28.9,116.4,47.64,164.55,55.71,57.94,9.71,105,3.81,140-17.54,35.72-21.82,60.17-61,72.67-116.32,14.81-65.57,13.18-154.59-4.83-264.57a17,17,0,0,1,14.06-19.57,17,17,0,0,1,19.58,14.06c9.57,58.43,14.71,111.78,15.27,158.56.54,44.79-3.11,84.85-10.83,119-14.62,64.7-44.28,111.1-88.17,137.91C4531.67-1189.28,4495.9-1180.24,4454.38-1180.24Z" transform="translate(1599.38 3616.59)"/><path class="cls-3" d="M4395.84-808.76q-38.7,0-83.39-13.08c-46.56-13.65-98-38-153-72.52-92.74-58.17-162.75-124.21-165.69-127a17,17,0,0,1-.64-24.09,17,17,0,0,1,24.1-.64c.83.78,70.92,66.83,160.8,123.13,52.24,32.72,100.78,55.76,144.27,68.48,52.39,15.33,97.15,15.51,133,.54,35.23-14.69,63.26-44.77,83.3-89.4,23.65-52.68,36.69-126.32,38.75-218.85a17,17,0,0,1,17.42-16.67,17,17,0,0,1,16.66,17.43c-1.1,49.56-5.3,94.49-12.48,133.54-6.9,37.5-16.74,70.65-29.26,98.53-23.71,52.8-57.79,88.77-101.29,106.9C4446.51-813.33,4422.25-808.76,4395.84-808.76Z" transform="translate(1599.38 3616.59)"/><path class="cls-3" d="M4240-671.69a17,17,0,0,1-11.3-4.29c-43.85-38.88-133.62-115.12-242.26-188.9a17.05,17.05,0,0,1-4.52-23.68,17,17,0,0,1,23.68-4.52c110.22,74.85,201.26,152.17,245.72,191.59a17,17,0,0,1,1.44,24.06A17,17,0,0,1,4240-671.69Z" transform="translate(1599.38 3616.59)"/><path class="cls-3" d="M4367.73-605.11c-21.09,0-43.14-5.37-66-16.12a188.47,188.47,0,0,1-18.26-9.85,17,17,0,0,1-5.63-23.44,17.05,17.05,0,0,1,23.44-5.63,154.37,154.37,0,0,0,14.95,8.07c35.37,16.63,66.21,17.14,94.29,1.54,99.53-55.28,129-287.53,129.9-295a17,17,0,0,1,16.94-15.22,17,17,0,0,1,17.05,17,16.65,16.65,0,0,1-.12,2,865.24,865.24,0,0,1-29,134.8c-12.53,41.4-27.33,77.14-44,106.24-21.58,37.68-46.56,64.58-74.26,80A120.59,120.59,0,0,1,4367.73-605.11Z" transform="translate(1599.38 3616.59)"/><path class="cls-3" d="M4251.67-401c-23,0-45.35-7.49-66.7-22.36-17.74-12.35-34.8-29.91-50.71-52.19a265.22,265.22,0,0,1-31-58.1c-42.59-109.73-137.77-172.18-138.73-172.8a17.05,17.05,0,0,1-5.06-23.57,17,17,0,0,1,23.56-5.06c1.09.7,27,17.54,58.59,49.18a448.56,448.56,0,0,1,49.75,59A381.18,381.18,0,0,1,4135-546a230.86,230.86,0,0,0,27,50.62c31.22,43.73,64.33,63.83,98.42,59.74,49.57-5.95,130-66.38,231.82-320.49a17,17,0,0,1,22.16-9.49,17.06,17.06,0,0,1,9.49,22.17c-46.23,115.38-92.79,202.6-138.4,259.25-20.64,25.64-41.56,45.59-62.18,59.31-19.53,13-39.33,20.76-58.83,23.1A108.61,108.61,0,0,1,4251.67-401Z" transform="translate(1599.38 3616.59)"/><path class="cls-3" d="M4169.3-278.78a90.94,90.94,0,0,1-17.67-1.73c-26.08-5.18-49.79-21.86-70.47-49.58-15.45-20.71-29.36-47.8-41.35-80.52a618.51,618.51,0,0,1-28.24-108.34,17,17,0,0,1,14.32-19.39A17,17,0,0,1,4045.28-524h0c.08.5,7.79,50.68,26.72,102.17,16.43,44.68,44.74,99.68,86.28,107.9,22.35,4.43,48.13-5.08,76.61-28.25,36-29.28,75.73-79.91,118.13-150.48a17,17,0,0,1,23.39-5.84,17,17,0,0,1,5.84,23.39c-44.45,74-86.8,127.61-125.86,159.39C4226.17-291.16,4197-278.78,4169.3-278.78Z" transform="translate(1599.38 3616.59)"/><path class="cls-3" d="M2251-2696.15a17,17,0,0,1-8.47-2.26,17,17,0,0,1-6.3-23.27c39.53-68.92,96.84-123.49,170.33-162.19,58.24-30.67,126.66-51.41,203.35-61.66,67.81-9.07,129.77-8.08,169.8-5.66,43.53,2.64,70.82,7.39,72,7.59a17,17,0,0,1,13.83,19.75,17.05,17.05,0,0,1-19.74,13.82h0c-.27,0-27.08-4.69-69-7.18-38.55-2.3-98.16-3.19-163.22,5.59-164.74,22.21-281.74,91.83-347.74,206.91A17,17,0,0,1,2251-2696.15Z" transform="translate(1599.38 3616.59)"/><path class="cls-3" d="M2003.36-2343.52a17.05,17.05,0,0,1-16.44-12.61c-.84-3.12-20.55-77.31-16.3-159.24a236.27,236.27,0,0,1,16.05-74.33,236,236,0,0,1,37.68-64,233.12,233.12,0,0,1,55.72-49,230.69,230.69,0,0,1,70.15-29.32c73.36-17.24,178.4-3.86,262.27,157.78a17,17,0,0,1-7.28,23,17,17,0,0,1-23-7.28C2323-2672.67,2247.57-2719.87,2158-2698.83c-85.69,20.14-148.75,96.3-153.36,185.22-4,76.59,15,147.89,15.17,148.61a17,17,0,0,1-12,20.89A17.07,17.07,0,0,1,2003.36-2343.52Z" transform="translate(1599.38 3616.59)"/><path class="cls-3" d="M2005.88-2113.46a208.13,208.13,0,0,1-139.05-53.25c-67.5-60.38-87.25-137.34-57.1-222.56a17.05,17.05,0,0,1,21.76-10.38,17,17,0,0,1,10.38,21.75c-25.52,72.14-9.47,134.65,47.69,185.78a174.15,174.15,0,0,0,116.33,44.57,170.46,170.46,0,0,0,121.11-50c40-40.14,57.37-96.67,51.5-168-4.51-54.93-21.8-98.25-22-98.69a17,17,0,0,1,9.41-22.18,17,17,0,0,1,22.18,9.38c.79,1.92,19.2,47.82,24.29,107.73,3,35.58.69,68.79-6.93,98.69-9.71,38.07-28,70.76-54.34,97.17A204.57,204.57,0,0,1,2005.88-2113.46Z" transform="translate(1599.38 3616.59)"/><path class="cls-3" d="M2247.51-1957q-44.4,0-101.07-18.09a17,17,0,0,1-11-21.43,17,17,0,0,1,21.42-11c73.21,23.42,127.24,22,160.58-4.21,37.85-29.75,38.7-84.71,38.41-96.8-19.72-48.13-55.26-81.47-105.68-99.11-39.38-13.78-73.58-12.42-73.92-12.4a17,17,0,0,1-17.85-16.19,17.07,17.07,0,0,1,16.21-17.87c1.62-.08,40.13-1.77,85.54,13.84,26.91,9.25,50.77,22.67,70.93,39.91,25.29,21.62,44.65,49.19,57.53,81.93a16.82,16.82,0,0,1,1.14,5c.26,3.39,5.69,83.56-51,128.36C2315-1966.44,2284.46-1957,2247.51-1957Z" transform="translate(1599.38 3616.59)"/><path class="cls-3" d="M4389.34-2278.56a17,17,0,0,1-14.72-8.43c-71.28-121.77-208-174.47-406.38-156.63-78.79,7.08-151.65,24.54-198.9,37.94-51.37,14.56-84.44,27.62-84.76,27.75a17.05,17.05,0,0,1-22.14-9.55,17,17,0,0,1,9.55-22.13c1.38-.55,34.55-13.67,87.3-28.66,48.64-13.82,123.7-31.85,205.17-39.24,92.34-8.38,174-1.65,242.61,20,87.25,27.51,153.52,79.09,197,153.31a17.06,17.06,0,0,1-6.1,23.33A17,17,0,0,1,4389.34-2278.56Z" transform="translate(1599.38 3616.59)"/><path class="cls-3" d="M3251.15,333.72a9.71,9.71,0,0,1-9.22-12.74l20.83-63.2a9.7,9.7,0,0,1,18.43,6.08l-20.83,63.19A9.7,9.7,0,0,1,3251.15,333.72Z" transform="translate(1599.38 3616.59)"/><path class="cls-3" d="M2596.64,247.65h0a9.7,9.7,0,0,1-9.69-9.72l.13-77.87a9.7,9.7,0,0,1,9.7-9.68h0a9.7,9.7,0,0,1,9.68,9.72l-.13,77.86A9.69,9.69,0,0,1,2596.64,247.65Z" transform="translate(1599.38 3616.59)"/><path class="cls-3" d="M1776.55-309.77a17,17,0,0,1-16.7-13.75c-13.37-68-45.41-122.85-69.93-156.91-26.82-37.27-50.8-58.53-51-58.74a17.05,17.05,0,0,1-1.55-24.05,17,17,0,0,1,24-1.58c1.08.94,26.6,23.47,55.61,63.59a472.68,472.68,0,0,1,43.77,73.58,413.11,413.11,0,0,1,32.56,97.53,17.05,17.05,0,0,1-13.44,20A17,17,0,0,1,1776.55-309.77Z" transform="translate(1599.38 3616.59)"/><path class="cls-3" d="M1735-194.21a17,17,0,0,1-14.55-8.15c-20.43-33.36-34-68.35-40.25-104a268.76,268.76,0,0,1-1.14-86.49c7.34-49.15,25.89-80.39,26.67-81.7a17,17,0,0,1,23.4-5.81A17,17,0,0,1,1735-457c-.3.5-16.31,28-22.41,70.68-8.13,57,4.3,112.86,37,166.19a17,17,0,0,1-5.63,23.43A16.9,16.9,0,0,1,1735-194.21Z" transform="translate(1599.38 3616.59)"/><path class="cls-3" d="M2919-351.33l-19-15.68-.06.08c.09-.11,8.9-11.33,24.13-44.56,14-30.48,36.37-86.34,63.82-179.36a91.7,91.7,0,0,0-6.68-68.69l-24.33-46.61a12.33,12.33,0,0,1,5.22-16.63,12.32,12.32,0,0,1,16.63,5.23L3003-670.94a116.19,116.19,0,0,1,8.47,87.06C2956.81-398.63,2920.47-353.17,2919-351.33Z" transform="translate(1599.38 3616.59)"/><path class="cls-3" d="M3202.11-285.33a12.33,12.33,0,0,1-12.28-11.36c-7.7-98.32-15.35-176.22-20.4-224.26a107.12,107.12,0,0,1,12.13-62,107.06,107.06,0,0,1,44.86-44.5l48.88-25.65a12.33,12.33,0,0,1,16.64,5.19,12.32,12.32,0,0,1-5.19,16.64l-48.88,25.64a82.5,82.5,0,0,0-43.93,82.11c5.08,48.19,12.74,126.33,20.47,224.91a12.32,12.32,0,0,1-11.33,13.25C3202.76-285.34,3202.43-285.33,3202.11-285.33Z" transform="translate(1599.38 3616.59)"/></svg>